# xmcd CD database file
#
# Track frame offsets:
#	150
#	16460
#	31710
#	46728
#	61060
#	81515
#	92905
#	109518
#	122428
#	133065
#	147285
#
# Disc length: 2105 seconds
#
# Revision: 2
# Processed by: cddbd v1.5.1PL2 Copyright (c) Steve Scherf et al.
# Submitted via: CDex 1.51
#
DISCID=8808370b
DTITLE=Sammy Kershaw  - Feelin' Good Train
DYEAR=1994
DGENRE=Country
TTITLE0=Feelin' Good Train
TTITLE1=Third Rate Romance
TTITLE2=If You Ever Come This Way Again
TTITLE3=National Working Woman's Holiday
TTITLE4=Southbound
TTITLE5=Better Call A Preacher
TTITLE6=Paradise From Nine To One
TTITLE7=Too Far Gone To Leave
TTITLE8=If Your Gonna Walk, I'm Gonna Crawl
TTITLE9=The Heart That Time Forgot
TTITLE10=Never Bit A Bullet Like This
EXTD=Track 11 with George Jones YEAR: 1994
EXTT0=
EXTT1=
EXTT2=
EXTT3=
EXTT4=
EXTT5=
EXTT6=
EXTT7=
EXTT8=
EXTT9=
EXTT10=
PLAYORDER=
